<svg xmlns="http://www.w3.org/2000/svg" version="1.1" xmlns:xlink="http://www.w3.org/1999/xlink" xmlns:svgjs="http://svgjs.dev/svgjs" width="1500" height="1500" viewBox="0 0 1500 1500"><rect width="1500" height="1500" fill="#000000"></rect><g transform="matrix(0.6666666666666666,0,0,0.6666666666666666,249.39393939393938,603.8404238558314)"><svg viewBox="0 0 396 115" data-background-color="#2f2a29" preserveAspectRatio="xMidYMid meet" height="435" width="1500" xmlns="http://www.w3.org/2000/svg" xmlns:xlink="http://www.w3.org/1999/xlink"><g id="tight-bounds" transform="matrix(1,0,0,1,0.2400000000000091,0.4598319192392353)"><svg viewBox="0 0 395.52 114.08033616152153" height="114.08033616152153" width="395.52"><g><svg viewBox="0 0 395.52 114.08033616152153" height="114.08033616152153" width="395.52"><g><svg viewBox="0 0 395.52 114.08033616152153" height="114.08033616152153" width="395.52"><g id="textblocktransform"><svg viewBox="0 0 395.52 114.08033616152153" height="114.08033616152153" width="395.52" id="textblock"><g><svg viewBox="0 0 395.52 114.08033616152153" height="114.08033616152153" width="395.52"><g transform="matrix(1,0,0,1,0,0)"><svg width="395.52" viewBox="2.900000000000002 -35.7 273.3019996313601 75.80000000000001" height="114.08033616152153" data-palette-color="#e84613"><svg></svg><svg></svg><g class="wordmark-text-0" data-fill-palette-color="primary" id="text-0"><path d="M12.55-35.7v0c0.533 0 1.11 0.033 1.73 0.1 0.613 0.067 1.21 0.157 1.79 0.27 0.587 0.12 1.123 0.237 1.61 0.35 0.48 0.12 0.853 0.247 1.12 0.38v0 5.55h-0.45c0-1.6-0.55-2.86-1.65-3.78-1.1-0.913-2.433-1.37-4-1.37v0c-1.833 0-3.317 0.573-4.45 1.72-1.133 1.153-1.7 2.497-1.7 4.03v0c0 0.633 0.143 1.373 0.43 2.22 0.28 0.853 0.803 1.647 1.57 2.38v0l9.85 9.1c1 0.933 1.667 1.933 2 3 0.333 1.067 0.5 2.1 0.5 3.1v0c0 2.767-0.84 5.017-2.52 6.75-1.687 1.733-3.963 2.6-6.83 2.6v0c-0.8 0-1.743-0.083-2.83-0.25-1.08-0.167-2.127-0.46-3.14-0.88-1.02-0.413-1.863-0.953-2.53-1.62v0c-0.1-0.533-0.15-1.2-0.15-2 0-0.8 0.067-1.643 0.2-2.53 0.133-0.88 0.317-1.687 0.55-2.42v0h0.45c-0.167 1.7 0.05 3.183 0.65 4.45 0.6 1.267 1.477 2.223 2.63 2.87 1.147 0.653 2.453 0.947 3.92 0.88v0c1.833-0.1 3.41-0.743 4.73-1.93 1.313-1.18 1.97-2.77 1.97-4.77v0c0-0.967-0.167-1.843-0.5-2.63-0.333-0.78-0.817-1.453-1.45-2.02v0l-9.6-8.9c-1-0.933-1.7-1.96-2.1-3.08-0.4-1.113-0.6-2.153-0.6-3.12v0c0-1.4 0.333-2.75 1-4.05 0.667-1.3 1.66-2.36 2.98-3.18 1.313-0.813 2.92-1.22 4.82-1.22zM15-35.2h3.8v1.05h-3.8zM45.7-35v0h7.05c1.5 0 2.86 0.217 4.08 0.65 1.213 0.433 2.237 1.057 3.07 1.87 0.833 0.82 1.477 1.803 1.93 2.95 0.447 1.153 0.67 2.463 0.67 3.93v0c0 1.6-0.373 3.133-1.12 4.6-0.753 1.467-1.77 2.657-3.05 3.57-1.287 0.92-2.73 1.38-4.33 1.38v0c0.567 0.233 1.183 0.707 1.85 1.42 0.667 0.72 1.25 1.413 1.75 2.08v0c0 0 0.227 0.323 0.68 0.97 0.447 0.653 1.013 1.447 1.7 2.38 0.68 0.933 1.37 1.85 2.07 2.75 0.7 0.9 1.3 1.617 1.8 2.15v0c0.667 0.733 1.333 1.383 2 1.95 0.667 0.567 1.393 1.017 2.18 1.35 0.78 0.333 1.653 0.5 2.62 0.5v0 0.5h-2.75c-1.533 0-2.86-0.233-3.98-0.7-1.113-0.467-2.053-1.043-2.82-1.73-0.767-0.68-1.417-1.337-1.95-1.97v0c-0.1-0.133-0.373-0.517-0.82-1.15-0.453-0.633-0.987-1.393-1.6-2.28-0.62-0.88-1.23-1.753-1.83-2.62-0.6-0.867-1.117-1.61-1.55-2.23-0.433-0.613-0.683-0.97-0.75-1.07v0c-0.633-0.833-1.333-1.6-2.1-2.3-0.767-0.7-1.6-1.05-2.5-1.05v0-0.5c0 0 0.257 0.01 0.77 0.03 0.52 0.013 1.147 0.003 1.88-0.03v0c0.867-0.033 1.817-0.167 2.85-0.4 1.033-0.233 2-0.717 2.9-1.45 0.9-0.733 1.583-1.85 2.05-3.35v0c0.1-0.367 0.183-0.827 0.25-1.38 0.067-0.547 0.083-1.087 0.05-1.62v0c-0.033-2.267-0.607-4.077-1.72-5.43-1.12-1.347-2.613-2.07-4.48-2.17v0c-0.933-0.067-1.893-0.093-2.88-0.08-0.98 0.02-1.803 0.03-2.47 0.03-0.667 0-1 0-1 0v0c0-0.033-0.04-0.177-0.12-0.43-0.087-0.247-0.17-0.497-0.25-0.75-0.087-0.247-0.13-0.37-0.13-0.37zM43.1-35h3.25v35h-3.25zM43.1-3.65h0.15v3.65h-4v-0.5c0 0 0.11 0 0.33 0 0.213 0 0.32 0 0.32 0v0c0.867 0 1.61-0.31 2.23-0.93 0.613-0.613 0.937-1.353 0.97-2.22zM43.25-35v3.65h-0.15c-0.033-0.867-0.357-1.61-0.97-2.23-0.62-0.613-1.363-0.92-2.23-0.92v0c0 0-0.107 0-0.32 0-0.22 0-0.33 0-0.33 0v0-0.5zM46.2 0v-3.65h0.15c0 0.867 0.317 1.607 0.95 2.22 0.633 0.62 1.383 0.93 2.25 0.93v0c0 0 0.1 0 0.3 0 0.2 0 0.3 0 0.3 0v0 0.5z" fill="#ffffff" fill-rule="nonzero" stroke="none" stroke-width="1" stroke-linecap="butt" stroke-linejoin="miter" stroke-miterlimit="10" stroke-dasharray="" stroke-dashoffset="0" font-family="none" font-weight="none" font-size="none" text-anchor="none" style="mix-blend-mode: normal" data-fill-palette-color="primary" opacity="1"></path><path d="M6.85 4.4h3.25v35h-3.25zM6.85 35.75h0.15v3.65h-4v-0.5c0 0 0.11 0 0.33 0 0.213 0 0.32 0 0.32 0v0c0.867 0 1.61-0.31 2.23-0.93 0.613-0.613 0.937-1.353 0.97-2.22zM7 4.4v3.65h-0.15c-0.033-0.867-0.357-1.61-0.97-2.23-0.62-0.613-1.363-0.92-2.23-0.92v0c0 0-0.107 0-0.32 0-0.22 0-0.33 0-0.33 0v0-0.5zM9.95 39.4v-3.65h0.15c0.033 0.867 0.36 1.607 0.98 2.22 0.613 0.62 1.353 0.93 2.22 0.93v0c0 0 0.1 0 0.3 0 0.2 0 0.317 0 0.35 0v0 0.5zM10.1 8.05h-0.15v-3.65h4v0.5c-0.033 0-0.15 0-0.35 0-0.2 0-0.3 0-0.3 0v0c-0.867 0-1.607 0.307-2.22 0.92-0.62 0.62-0.947 1.363-0.98 2.23zM22.8 13.85l-0.5-5.2 27.7 26.1 0.5 5.35zM22.25 36.3h0.15v3.1h-3.75v-0.5c0 0 0.143 0 0.43 0 0.28 0 0.42 0 0.42 0v0c0.767 0 1.417-0.25 1.95-0.75 0.533-0.5 0.8-1.117 0.8-1.85zM24.35 36.3h0.15c0 0.733 0.277 1.35 0.83 1.85 0.547 0.5 1.187 0.75 1.92 0.75v0c0 0 0.143 0 0.43 0 0.28 0 0.42 0 0.42 0v0 0.5h-3.75zM21.8 8.65h0.5l2.15 2.8 0.05 27.95h-2.25v-24.5c0-1.7-0.073-3.167-0.22-4.4-0.153-1.233-0.23-1.85-0.23-1.85zM48.3 9.4h2.2v24.3c0 1.067 0.033 2.09 0.1 3.07 0.067 0.987 0.143 1.787 0.23 2.4 0.08 0.62 0.12 0.93 0.12 0.93v0h-0.45l-2.2-2.65zM50.5 12.5h-0.15v-3.1h3.75v0.5c0 0-0.143 0-0.43 0-0.28 0-0.42 0-0.42 0v0c-0.733 0-1.373 0.25-1.92 0.75-0.553 0.5-0.83 1.117-0.83 1.85zM48.4 12.5h-0.1c-0.033-0.733-0.317-1.35-0.85-1.85-0.533-0.5-1.183-0.75-1.95-0.75v0c0 0-0.14 0-0.42 0-0.287 0-0.43 0-0.43 0v0-0.5h3.75zM64.05 9.4h11.25c3.3 0 6.15 0.6 8.55 1.8 2.4 1.2 4.25 2.923 5.55 5.17 1.3 2.253 1.95 4.93 1.95 8.03v0c0 3.1-0.65 5.767-1.95 8-1.3 2.233-3.15 3.957-5.55 5.17-2.4 1.22-5.25 1.83-8.55 1.83v0h-10.65l-0.1-1.5c2.333 0 4.293 0 5.88 0 1.58 0 2.787 0 3.62 0 0.833 0 1.25 0 1.25 0v0c3.867 0 6.91-1.21 9.13-3.63 2.213-2.413 3.32-5.703 3.32-9.87v0c0-4.167-1.107-7.46-3.32-9.88-2.22-2.413-5.263-3.62-9.13-3.62v0c0 0-0.433 0-1.3 0-0.867 0-2.133 0-3.8 0-1.667 0-3.717 0-6.15 0v0zM62.1 9.4h3.25v30h-3.25zM62.1 36.15h0.1v3.25h-3.6v-0.5c0 0 0.11 0 0.33 0 0.213 0 0.32 0 0.32 0v0c0.8 0 1.467-0.277 2-0.83 0.533-0.547 0.817-1.187 0.85-1.92zM62.2 9.4v3.25h-0.1c-0.033-0.8-0.323-1.46-0.87-1.98-0.553-0.513-1.23-0.77-2.03-0.77v0c0 0-0.1 0-0.3 0-0.2 0-0.3 0-0.3 0v0-0.5zM98.5 9.4h3.2v18.9c0 3.233 0.827 5.783 2.48 7.65 1.647 1.867 3.903 2.8 6.77 2.8v0c3.167 0 5.66-0.883 7.48-2.65 1.813-1.767 2.72-4.183 2.72-7.25v0-19.45h2.3v19.45c0 3.467-1.107 6.207-3.32 8.22-2.22 2.02-5.263 3.03-9.13 3.03v0c-3.833 0-6.873-1-9.12-3-2.253-2-3.38-4.733-3.38-8.2v0zM95.35 9.4h3.25v2.65h-0.1c-0.033-0.6-0.273-1.11-0.72-1.53-0.453-0.413-1.013-0.62-1.68-0.62v0c0 0-0.123 0-0.37 0-0.253 0-0.38 0-0.38 0v0zM101.6 9.4h3.25v0.5c0 0-0.123 0-0.37 0-0.253 0-0.38 0-0.38 0v0c-0.633 0-1.19 0.207-1.67 0.62-0.487 0.42-0.73 0.93-0.73 1.53v0h-0.1zM118 9.4h3.25v2.65h-0.1c0-0.6-0.233-1.11-0.7-1.53-0.467-0.413-1.033-0.62-1.7-0.62v0c0 0-0.123 0-0.37 0-0.253 0-0.38 0-0.38 0v0zM123.35 9.4h3.25v0.5c0 0-0.123 0-0.37 0-0.253 0-0.38 0-0.38 0v0c-0.633 0-1.183 0.207-1.65 0.62-0.467 0.42-0.717 0.93-0.75 1.53v0h-0.1zM140.05 8.7v0c0.933 0 1.75 0.033 2.45 0.1 0.7 0.067 1.31 0.14 1.83 0.22 0.513 0.087 0.963 0.187 1.35 0.3 0.38 0.12 0.72 0.23 1.02 0.33v0l0.05 4.95h-0.6c0-1.367-0.467-2.443-1.4-3.23-0.933-0.78-2.383-1.17-4.35-1.17v0c-1.667 0-3.09 0.457-4.27 1.37-1.187 0.92-1.763 2.047-1.73 3.38v0c0 0.433 0.06 0.873 0.18 1.32 0.113 0.453 0.313 0.897 0.6 1.33 0.28 0.433 0.67 0.867 1.17 1.3v0l10.1 7.8c0.767 0.633 1.333 1.44 1.7 2.42 0.367 0.987 0.567 1.963 0.6 2.93v0c0.033 1.467-0.35 2.817-1.15 4.05-0.8 1.233-1.873 2.207-3.22 2.92-1.353 0.72-2.847 1.08-4.48 1.08v0c-0.967 0-2.007-0.083-3.12-0.25-1.12-0.167-2.163-0.427-3.13-0.78-0.967-0.347-1.767-0.787-2.4-1.32v0c-0.1-0.467-0.15-1.06-0.15-1.78 0-0.713 0.06-1.47 0.18-2.27 0.113-0.8 0.27-1.517 0.47-2.15v0h0.6c-0.133 1.5 0.083 2.783 0.65 3.85 0.567 1.067 1.4 1.873 2.5 2.42 1.1 0.553 2.383 0.813 3.85 0.78v0c2.067-0.067 3.693-0.593 4.88-1.58 1.18-0.98 1.77-2.287 1.77-3.92v0c0-0.8-0.14-1.523-0.42-2.17-0.287-0.653-0.747-1.263-1.38-1.83v0l-10-7.7c-0.933-0.8-1.567-1.683-1.9-2.65-0.333-0.967-0.5-1.883-0.5-2.75v0c0-1.367 0.367-2.6 1.1-3.7 0.733-1.1 1.727-1.977 2.98-2.63 1.247-0.647 2.637-0.97 4.17-0.97zM143.15 9.15h3.5l0.05 0.9h-3.55zM164.3 9.55h3.25v29.85h-3.25zM152.2 9.35h27.45v1.5h-27.45zM176.6 10.75h3.05v3.45h-0.55v-0.8c0-0.7-0.223-1.293-0.67-1.78-0.453-0.48-1.063-0.737-1.83-0.77v0zM179.65 8.55v0 1.3l-5.6-0.5c0.667 0 1.377-0.043 2.13-0.13 0.747-0.08 1.437-0.187 2.07-0.32 0.633-0.133 1.1-0.25 1.4-0.35zM164.3 36.2h0.1v3.2h-3.65v-0.5c0.033 0 0.143 0 0.33 0 0.18 0 0.27 0 0.27 0v0c0.8 0 1.483-0.267 2.05-0.8 0.567-0.533 0.867-1.167 0.9-1.9zM167.4 39.4v-3.2h0.15c0.033 0.733 0.333 1.367 0.9 1.9 0.567 0.533 1.25 0.8 2.05 0.8v0c0 0 0.093 0 0.28 0 0.18 0 0.27 0 0.27 0v0 0.5zM152.2 10.75h3.05v0.1c-0.767 0.033-1.373 0.29-1.82 0.77-0.453 0.487-0.68 1.08-0.68 1.78v0 0.8h-0.55zM152.2 9.85v-1.3c0.3 0.1 0.76 0.217 1.38 0.35 0.613 0.133 1.303 0.24 2.07 0.32 0.767 0.087 1.483 0.13 2.15 0.13v0zM189.2 9.4v0h6.45c1.567 0 2.977 0.183 4.23 0.55 1.247 0.367 2.313 0.9 3.2 1.6 0.88 0.7 1.553 1.55 2.02 2.55 0.467 1 0.7 2.133 0.7 3.4v0c0 1.4-0.333 2.7-1 3.9-0.667 1.2-1.59 2.183-2.77 2.95-1.187 0.767-2.53 1.233-4.03 1.4v0c0.567 0.233 1.227 0.75 1.98 1.55 0.747 0.8 1.387 1.583 1.92 2.35v0c0 0 0.217 0.29 0.65 0.87 0.433 0.587 0.993 1.303 1.68 2.15 0.68 0.853 1.353 1.663 2.02 2.43v0c0.7 0.767 1.343 1.433 1.93 2 0.58 0.567 1.213 1.007 1.9 1.32 0.68 0.32 1.47 0.48 2.37 0.48v0 0.5h-1.55c-1.833 0-3.34-0.233-4.52-0.7-1.187-0.467-2.147-1.043-2.88-1.73-0.733-0.68-1.367-1.337-1.9-1.97v0c-0.133-0.167-0.44-0.593-0.92-1.28-0.487-0.68-1.013-1.42-1.58-2.22-0.567-0.8-1.083-1.527-1.55-2.18-0.467-0.647-0.75-1.037-0.85-1.17v0c-0.667-0.867-1.433-1.643-2.3-2.33-0.867-0.68-1.783-1.02-2.75-1.02v0-0.5c0 0 0.267 0.007 0.8 0.02 0.533 0.02 1.217 0.013 2.05-0.02v0c0.933-0.033 1.867-0.11 2.8-0.23 0.933-0.113 1.81-0.47 2.63-1.07 0.813-0.6 1.453-1.6 1.92-3v0c0.133-0.367 0.233-0.8 0.3-1.3 0.067-0.5 0.083-1.017 0.05-1.55v0c-0.033-0.933-0.207-1.767-0.52-2.5-0.32-0.733-0.77-1.367-1.35-1.9-0.587-0.533-1.28-0.95-2.08-1.25-0.8-0.3-1.7-0.467-2.7-0.5v0c-1.567-0.067-2.933-0.083-4.1-0.05-1.167 0.033-1.75 0.033-1.75 0v0c0-0.033-0.04-0.177-0.12-0.43-0.087-0.247-0.17-0.497-0.25-0.75-0.087-0.247-0.13-0.37-0.13-0.37zM186.6 9.4h3.2v30h-3.2zM186.65 36.2h0.1l0.6 3.2h-4.25v-0.5c0 0 0.117 0 0.35 0 0.233 0 0.35 0 0.35 0v0c0.8 0 1.467-0.267 2-0.8 0.533-0.533 0.817-1.167 0.85-1.9zM187.35 9.4l-0.6 3.15h-0.1c-0.033-0.767-0.317-1.4-0.85-1.9-0.533-0.5-1.2-0.75-2-0.75v0c0 0-0.117 0-0.35 0-0.233 0-0.35 0-0.35 0v0-0.5zM189.05 39.4l0.6-3.2h0.15c0.033 0.733 0.317 1.367 0.85 1.9 0.533 0.533 1.2 0.8 2 0.8v0c0 0 0.11 0 0.33 0 0.213 0 0.32 0 0.32 0v0l0.05 0.5zM218.55 9.4h3.15v30h-3.15zM218.55 36.2h0.15v3.2h-4.25v-0.5c0 0 0.117 0 0.35 0 0.233 0 0.35 0 0.35 0v0c0.933 0 1.727-0.267 2.38-0.8 0.647-0.533 0.987-1.167 1.02-1.9zM221.55 39.4v-3.2h0.15c0.033 0.733 0.377 1.367 1.03 1.9 0.647 0.533 1.437 0.8 2.37 0.8v0c0 0 0.11 0 0.33 0 0.213 0 0.32 0 0.32 0v0l0.05 0.5zM221.7 12.6h-0.15v-3.2h4.25l-0.05 0.5c0 0-0.107 0-0.32 0-0.22 0-0.33 0-0.33 0v0c-0.933 0-1.723 0.257-2.37 0.77-0.653 0.52-0.997 1.163-1.03 1.93zM218.7 9.4v3.2h-0.15c-0.033-0.767-0.373-1.41-1.02-1.93-0.653-0.513-1.447-0.77-2.38-0.77v0c-0.033 0-0.157 0-0.37 0-0.22 0-0.33 0-0.33 0v0-0.5zM234.85 9.4h3.2v30h-3.2zM237.95 37.85h13.55l-0.1 1.55h-13.45zM237.95 23.65h11.2v1.5h-11.2zM237.95 9.4h13.5v1.55h-13.5zM253.8 32.25h0.5l-2.75 7.15h-7.6l1.7-1.55c1.667 0 3.01-0.24 4.03-0.72 1.013-0.487 1.837-1.157 2.47-2.01 0.633-0.847 1.183-1.803 1.65-2.87zM246.55 25.05h2.6v2.85h-0.55v-0.65c0-0.567-0.167-1.06-0.5-1.48-0.333-0.413-0.85-0.62-1.55-0.62v0zM248.6 20.9h0.55v2.85h-2.6v-0.1c0.7 0 1.217-0.21 1.55-0.63 0.333-0.413 0.5-0.903 0.5-1.47v0zM248.4 10.8h3.05v3.45h-0.55v-0.75c0-0.7-0.223-1.3-0.67-1.8-0.453-0.5-1.063-0.75-1.83-0.75v0zM251.45 8.6v0 1.3l-5.7-0.5c1.033 0 2.133-0.093 3.3-0.28 1.167-0.18 1.967-0.353 2.4-0.52zM234.85 36.2h0.1l0.65 3.2h-4.35v-0.5c0 0 0.117 0 0.35 0 0.233 0 0.35 0 0.35 0v0c0.833 0 1.517-0.267 2.05-0.8 0.533-0.533 0.817-1.167 0.85-1.9zM235.6 9.4l-0.65 3.15h-0.1c-0.033-0.767-0.317-1.4-0.85-1.9-0.533-0.5-1.217-0.75-2.05-0.75v0c0 0-0.117 0-0.35 0-0.233 0-0.35 0-0.35 0v0-0.5zM267.5 8.7v0c0.933 0 1.75 0.033 2.45 0.1 0.7 0.067 1.31 0.14 1.83 0.22 0.513 0.087 0.963 0.187 1.35 0.3 0.38 0.12 0.72 0.23 1.02 0.33v0l0.05 4.95h-0.6c0-1.367-0.467-2.443-1.4-3.23-0.933-0.78-2.383-1.17-4.35-1.17v0c-1.667 0-3.09 0.457-4.27 1.37-1.187 0.92-1.763 2.047-1.73 3.38v0c0 0.433 0.06 0.873 0.18 1.32 0.113 0.453 0.313 0.897 0.6 1.33 0.28 0.433 0.67 0.867 1.17 1.3v0l10.1 7.8c0.767 0.633 1.333 1.44 1.7 2.42 0.367 0.987 0.567 1.963 0.6 2.93v0c0.033 1.467-0.35 2.817-1.15 4.05-0.8 1.233-1.873 2.207-3.22 2.92-1.353 0.72-2.847 1.08-4.48 1.08v0c-0.967 0-2.007-0.083-3.12-0.25-1.12-0.167-2.163-0.427-3.13-0.78-0.967-0.347-1.767-0.787-2.4-1.32v0c-0.1-0.467-0.15-1.06-0.15-1.78 0-0.713 0.06-1.47 0.18-2.27 0.113-0.8 0.27-1.517 0.47-2.15v0h0.6c-0.133 1.5 0.083 2.783 0.65 3.85 0.567 1.067 1.4 1.873 2.5 2.42 1.1 0.553 2.383 0.813 3.85 0.78v0c2.067-0.067 3.693-0.593 4.88-1.58 1.18-0.98 1.77-2.287 1.77-3.92v0c0-0.8-0.14-1.523-0.42-2.17-0.287-0.653-0.747-1.263-1.38-1.83v0l-10-7.7c-0.933-0.8-1.567-1.683-1.9-2.65-0.333-0.967-0.5-1.883-0.5-2.75v0c0-1.367 0.367-2.6 1.1-3.7 0.733-1.1 1.727-1.977 2.98-2.63 1.247-0.647 2.637-0.97 4.17-0.97zM270.6 9.15h3.5l0.05 0.9h-3.55z" fill="#ffffff" fill-rule="nonzero" stroke="none" stroke-width="1" stroke-linecap="butt" stroke-linejoin="miter" stroke-miterlimit="10" stroke-dasharray="" stroke-dashoffset="0" font-family="none" font-weight="none" font-size="none" text-anchor="none" style="mix-blend-mode: normal" data-fill-palette-color="accent" opacity="1"></path></g></svg></g></svg></g></svg></g></svg></g></svg></g><defs></defs></svg><rect width="395.52" height="114.08033616152153" fill="none" stroke="none" visibility="hidden"></rect></g></svg></g></svg>